{
  "accessors": [
    {
      "bufferView": 2,
      "componentType": 5126,
      "count": 512,
      "max": [
        1.6145248413085938,
        1.6593602895736694,
        7.815292954047243e-16
      ],
      "min": [
        -1.6393080949783325,
        -1.6823493242263794,
        -0.003937007859349251
      ],
      "type": "VEC3"
    },
    {
      "bufferView": 2,
      "byteOffset": 6144,
      "componentType": 5126,
      "count": 512,
      "max": [
        1.0,
        1.0,
        1.0
      ],
      "min": [
        -1.0,
        -1.0,
        -1.0
      ],
      "type": "VEC3"
    },
    {
      "bufferView": 1,
      "componentType": 5126,
      "count": 512,
      "max": [
        0.9931256175041199,
        0.9932041168212891
      ],
      "min": [
        0.006874388083815575,
        0.0067958831787109375
      ],
      "type": "VEC2"
    },
    {
      "bufferView": 0,
      "componentType": 5125,
      "count": 2364,
      "type": "SCALAR"
    },
    {
      "bufferView": 2,
      "byteOffset": 12288,
      "componentType": 5126,
      "count": 607,
      "max": [
        1.0874907970428467,
        1.2451013326644897,
        2.2908709049224854
      ],
      "min": [
        -1.0384933948516846,
        -4.272830486297607,
        0.046852897852659225
      ],
      "type": "VEC3"
    },
    {
      "bufferView": 2,
      "byteOffset": 19572,
      "componentType": 5126,
      "count": 607,
      "max": [
        1.0,
        0.9999995827674866,
        0.9995745420455933
      ],
      "min": [
        -1.0,
        -0.999999463558197,
        -0.9996597170829773
      ],
      "type": "VEC3"
    },
    {
      "bufferView": 1,
      "byteOffset": 4096,
      "componentType": 5126,
      "count": 607,
      "max": [
        0.9624058604240417,
        1.059027910232544
      ],
      "min": [
        0.00877772644162178,
        0.0057866573333740234
      ],
      "type": "VEC2"
    },
    {
      "bufferView": 0,
      "byteOffset": 9456,
      "componentType": 5125,
      "count": 2376,
      "type": "SCALAR"
    },
    {
      "bufferView": 2,
      "byteOffset": 26856,
      "componentType": 5126,
      "count": 632,
      "max": [
        1.6145248413085938,
        1.6593602895736694,
        4.5301238431203145e-16
      ],
      "min": [
        -1.6393080949783325,
        -1.7714929580688477,
        -0.03937007859349251
      ],
      "type": "VEC3"
    },
    {
      "bufferView": 2,
      "byteOffset": 34440,
      "componentType": 5126,
      "count": 632,
      "max": [
        1.0,
        1.0,
        1.0
      ],
      "min": [
        -1.0,
        -1.0,
        -1.0
      ],
      "type": "VEC3"
    },
    {
      "bufferView": 1,
      "byteOffset": 8952,
      "componentType": 5126,
      "count": 632,
      "max": [
        1.0,
        1.0
      ],
      "min": [
        0.0,
        0.0
      ],
      "type": "VEC2"
    },
    {
      "bufferView": 0,
      "byteOffset": 18960,
      "componentType": 5125,
      "count": 1776,
      "type": "SCALAR"
    },
    {
      "bufferView": 2,
      "byteOffset": 42024,
      "componentType": 5126,
      "count": 148,
      "max": [
        0.15377704799175262,
        0.15377704799175262,
        0.15377704799175262
      ],
      "min": [
        -0.15377704799175262,
        -0.15377704799175262,
        -0.15377704799175262
      ],
      "type": "VEC3"
    },
    {
      "bufferView": 2,
      "byteOffset": 43800,
      "componentType": 5126,
      "count": 148,
      "max": [
        1.0,
        1.0,
        1.0
      ],
      "min": [
        -1.0,
        -1.0,
        -1.0
      ],
      "type": "VEC3"
    },
    {
      "bufferView": 1,
      "byteOffset": 14008,
      "componentType": 5126,
      "count": 148,
      "max": [
        1.0,
        1.0
      ],
      "min": [
        0.0,
        0.0
      ],
      "type": "VEC2"
    },
    {
      "bufferView": 0,
      "byteOffset": 26064,
      "componentType": 5125,
      "count": 432,
      "type": "SCALAR"
    },
    {
      "bufferView": 2,
      "byteOffset": 45576,
      "componentType": 5126,
      "count": 148,
      "max": [
        0.15377704799175262,
        0.15377704799175262,
        0.15377704799175262
      ],
      "min": [
        -0.15377704799175262,
        -0.15377704799175262,
        -0.15377704799175262
      ],
      "type": "VEC3"
    },
    {
      "bufferView": 2,
      "byteOffset": 47352,
      "componentType": 5126,
      "count": 148,
      "max": [
        1.0,
        1.0,
        1.0
      ],
      "min": [
        -1.0,
        -1.0,
        -1.0
      ],
      "type": "VEC3"
    },
    {
      "bufferView": 1,
      "byteOffset": 15192,
      "componentType": 5126,
      "count": 148,
      "max": [
        1.0,
        1.0
      ],
      "min": [
        0.0,
        0.0
      ],
      "type": "VEC2"
    },
    {
      "bufferView": 0,
      "byteOffset": 27792,
      "componentType": 5125,
      "count": 432,
      "type": "SCALAR"
    },
    {
      "bufferView": 2,
      "byteOffset": 49128,
      "componentType": 5126,
      "count": 144,
      "max": [
        6.688354969024658,
        4.182436943054199,
        -2.4172840118408203
      ],
      "min": [
        2.1861088275909424,
        -0.14787495136260986,
        -5.9605913162231445
      ],
      "type": "VEC3"
    },
    {
      "bufferView": 2,
      "byteOffset": 50856,
      "componentType": 5126,
      "count": 144,
      "max": [
        0.9457560181617737,
        0.9457559585571289,
        1.0
      ],
      "min": [
        -0.9457559585571289,
        -0.9999987483024597,
        -1.0
      ],
      "type": "VEC3"
    },
    {
      "bufferView": 1,
      "byteOffset": 16376,
      "componentType": 5126,
      "count": 144,
      "max": [
        1.3001182079315186,
        0.9656193256378174
      ],
      "min": [
        0.08197021484375,
        0.2489786148071289
      ],
      "type": "VEC2"
    },
    {
      "bufferView": 0,
      "byteOffset": 29520,
      "componentType": 5125,
      "count": 378,
      "type": "SCALAR"
    },
    {
      "bufferView": 2,
      "byteOffset": 52584,
      "componentType": 5126,
      "count": 232,
      "max": [
        1.2441165447235107,
        0.35139450430870056,
        0.05905510112643242
      ],
      "min": [
        -1.2441165447235107,
        -0.35139450430870056,
        -0.05905510112643242
      ],
      "type": "VEC3"
    },
    {
      "bufferView": 2,
      "byteOffset": 55368,
      "componentType": 5126,
      "count": 232,
      "max": [
        0.7564045190811157,
        0.9999708533287048,
        1.0
      ],
      "min": [
        -0.9983701705932617,
        -1.0,
        -1.0
      ],
      "type": "VEC3"
    },
    {
      "bufferView": 1,
      "byteOffset": 17528,
      "componentType": 5126,
      "count": 232,
      "max": [
        1.4913079738616943,
        0.6351546049118042
      ],
      "min": [
        0.007539278827607632,
        0.18431496620178223
      ],
      "type": "VEC2"
    },
    {
      "bufferView": 0,
      "byteOffset": 31032,
      "componentType": 5125,
      "count": 624,
      "type": "SCALAR"
    },
    {
      "bufferView": 2,
      "byteOffset": 58152,
      "componentType": 5126,
      "count": 232,
      "max": [
        1.2441165447235107,
        0.35139450430870056,
        0.05905510112643242
      ],
      "min": [
        -1.2441165447235107,
        -0.35139450430870056,
        -0.05905510112643242
      ],
      "type": "VEC3"
    },
    {
      "bufferView": 2,
      "byteOffset": 60936,
      "componentType": 5126,
      "count": 232,
      "max": [
        0.7564045190811157,
        0.9999708533287048,
        1.0
      ],
      "min": [
        -0.9983701705932617,
        -1.0,
        -1.0
      ],
      "type": "VEC3"
    },
    {
      "bufferView": 1,
      "byteOffset": 19384,
      "componentType": 5126,
      "count": 232,
      "max": [
        1.4913079738616943,
        0.6351546049118042
      ],
      "min": [
        0.007539278827607632,
        0.18431496620178223
      ],
      "type": "VEC2"
    },
    {
      "bufferView": 0,
      "byteOffset": 33528,
      "componentType": 5125,
      "count": 624,
      "type": "SCALAR"
    }
  ],
  "asset": {
    "extras": {
      "author": "yaserahmady (https://sketchfab.com/yaserahmady)",
      "license": "CC-BY-4.0 (http://creativecommons.org/licenses/by/4.0/)",
      "source": "https://sketchfab.com/3d-models/little-printer-918b1db7bbec4e12bc0c7a53a26b88c1",
      "title": "Little Printer"
    },
    "generator": "Sketchfab-11.47.0",
    "version": "2.0"
  },
  "bufferViews": [
    {
      "buffer": 0,
      "byteLength": 36024,
      "name": "floatBufferViews",
      "target": 34963
    },
    {
      "buffer": 0,
      "byteLength": 21240,
      "byteOffset": 36024,
      "byteStride": 8,
      "name": "floatBufferViews",
      "target": 34962
    },
    {
      "buffer": 0,
      "byteLength": 63720,
      "byteOffset": 57264,
      "byteStride": 12,
      "name": "floatBufferViews",
      "target": 34962
    }
  ],
  "buffers": [
    {
      "byteLength": 120984,
      "uri": "scene.bin"
    }
  ],
  "images": [
    {
      "uri": "textures/Face_baseColor.png"
    }
  ],
  "materials": [
    {
      "doubleSided": true,
      "name": "Face",
      "pbrMetallicRoughness": {
        "baseColorTexture": {
          "index": 0
        },
        "metallicFactor": 0.0,
        "roughnessFactor": 0.9524317153998911
      }
    },
    {
      "doubleSided": true,
      "emissiveFactor": [
        1.0,
        1.0,
        1.0
      ],
      "name": "Mask",
      "pbrMetallicRoughness": {
        "baseColorFactor": [
          0.0,
          0.0,
          0.0,
          1.0
        ],
        "metallicFactor": 0.0,
        "roughnessFactor": 0.6
      }
    },
    {
      "doubleSided": true,
      "emissiveFactor": [
        0.592157,
        0.627451,
        0.658824
      ],
      "name": "Plate",
      "pbrMetallicRoughness": {
        "baseColorFactor": [
          0.0,
          0.0,
          0.0,
          1.0
        ],
        "metallicFactor": 0.0,
        "roughnessFactor": 0.6
      }
    },
    {
      "doubleSided": true,
      "emissiveFactor": [
        1.0,
        1.0,
        1.0
      ],
      "name": "Paper",
      "pbrMetallicRoughness": {
        "baseColorFactor": [
          0.0,
          0.0,
          0.0,
          1.0
        ],
        "metallicFactor": 0.0,
        "roughnessFactor": 0.6
      }
    },
    {
      "doubleSided": true,
      "name": "Black_Plastic",
      "pbrMetallicRoughness": {
        "baseColorFactor": [
          0.0,
          0.0,
          0.0,
          1.0
        ],
        "metallicFactor": 0.0,
        "roughnessFactor": 0.6
      }
    },
    {
      "doubleSided": true,
      "emissiveFactor": [
        1.0,
        1.0,
        1.0
      ],
      "name": "White_Plastic",
      "pbrMetallicRoughness": {
        "baseColorFactor": [
          0.0,
          0.0,
          0.0,
          1.0
        ],
        "metallicFactor": 0.0,
        "roughnessFactor": 0.6
      }
    },
    {
      "doubleSided": true,
      "emissiveFactor": [
        0.992157,
        0.34902,
        0.101961
      ],
      "name": "Orange_Plastic",
      "pbrMetallicRoughness": {
        "baseColorFactor": [
          0.0,
          0.0,
          0.0,
          1.0
        ],
        "metallicFactor": 0.0,
        "roughnessFactor": 0.6
      }
    }
  ],
  "meshes": [
    {
      "name": "Face_Face_0",
      "primitives": [
        {
          "attributes": {
            "NORMAL": 1,
            "POSITION": 0,
            "TEXCOORD_0": 2
          },
          "indices": 3,
          "material": 0,
          "mode": 4
        }
      ]
    },
    {
      "name": "Receipt_Mask_0",
      "primitives": [
        {
          "attributes": {
            "NORMAL": 5,
            "POSITION": 4,
            "TEXCOORD_0": 6
          },
          "indices": 7,
          "material": 1,
          "mode": 4
        }
      ]
    },
    {
      "name": "Plate_Plate_0",
      "primitives": [
        {
          "attributes": {
            "NORMAL": 9,
            "POSITION": 8,
            "TEXCOORD_0": 10
          },
          "indices": 11,
          "material": 2,
          "mode": 4
        }
      ]
    },
    {
      "name": "LED_Paper_0",
      "primitives": [
        {
          "attributes": {
            "NORMAL": 13,
            "POSITION": 12,
            "TEXCOORD_0": 14
          },
          "indices": 15,
          "material": 3,
          "mode": 4
        }
      ]
    },
    {
      "name": "Button_Black Plastic_0",
      "primitives": [
        {
          "attributes": {
            "NORMAL": 17,
            "POSITION": 16,
            "TEXCOORD_0": 18
          },
          "indices": 19,
          "material": 4,
          "mode": 4
        }
      ]
    },
    {
      "name": "Body_White Plastic_0",
      "primitives": [
        {
          "attributes": {
            "NORMAL": 21,
            "POSITION": 20,
            "TEXCOORD_0": 22
          },
          "indices": 23,
          "material": 5,
          "mode": 4
        }
      ]
    },
    {
      "name": "Leg_Orange Plastic_0",
      "primitives": [
        {
          "attributes": {
            "NORMAL": 25,
            "POSITION": 24,
            "TEXCOORD_0": 26
          },
          "indices": 27,
          "material": 6,
          "mode": 4
        }
      ]
    },
    {
      "name": "Leg_2_Orange Plastic_0",
      "primitives": [
        {
          "attributes": {
            "NORMAL": 29,
            "POSITION": 28,
            "TEXCOORD_0": 30
          },
          "indices": 31,
          "material": 6,
          "mode": 4
        }
      ]
    }
  ],
  "nodes": [
    {
      "children": [
        1
      ],
      "matrix": [
        1.0,
        0.0,
        0.0,
        0.0,
        0.0,
        2.220446049250313e-16,
        -1.0,
        0.0,
        0.0,
        1.0,
        2.220446049250313e-16,
        0.0,
        0.0,
        0.0,
        0.0,
        1.0
      ],
      "name": "Sketchfab_model"
    },
    {
      "children": [
        2
      ],
      "matrix": [
        1.0,
        0.0,
        0.0,
        0.0,
        0.0,
        0.0,
        1.0,
        0.0,
        0.0,
        -1.0,
        0.0,
        0.0,
        0.0,
        0.0,
        0.0,
        1.0
      ],
      "name": "Little Printer.fbx"
    },
    {
      "children": [
        3
      ],
      "name": "RootNode"
    },
    {
      "children": [
        4,
        9,
        11,
        13,
        15,
        17,
        19
      ],
      "name": "Little_Printer"
    },
    {
      "children": [
        5,
        7
      ],
      "matrix": [
        1.0,
        0.0,
        8.881784197001252e-16,
        0.0,
        0.0,
        1.0,
        0.0,
        0.0,
        -8.881784197001252e-16,
        0.0,
        1.0,
        0.0,
        -2.461974620819092,
        1.290208101272583,
        -0.8290106654167175,
        1.0
      ],
      "name": "Paper"
    },
    {
      "children": [
        6
      ],
      "matrix": [
        1.0,
        0.0,
        0.0,
        0.0,
        0.0,
        0.9547607995027974,
        -0.29737487407778607,
        0.0,
        0.0,
        0.29737487407778607,
        0.9547607995027974,
        0.0,
        2.471405506134033,
        1.295124888420105,
        1.545620083808899,
        1.0
      ],
      "name": "Face"
    },
    {
      "mesh": 0,
      "name": "Face_Face_0"
    },
    {
      "children": [
        8
      ],
      "matrix": [
        1.0,
        0.0,
        0.0,
        0.0,
        0.0,
        1.0,
        0.0,
        0.0,
        0.0,
        0.0,
        1.0,
        0.0,
        2.461974620819092,
        -1.295124888420105,
        1.7206439971923828,
        1.0
      ],
      "name": "Receipt"
    },
    {
      "mesh": 1,
      "name": "Receipt_Mask_0"
    },
    {
      "children": [
        10
      ],
      "matrix": [
        1.0,
        0.0,
        8.881784197001252e-16,
        0.0,
        2.6412194571693176e-16,
        0.9547607995027974,
        -0.29737487407778607,
        0.0,
        -8.479979380940228e-16,
        0.29737487407778607,
        0.9547607995027974,
        0.0,
        0.0094308415427804,
        2.5853331089019775,
        0.7559795379638672,
        1.0
      ],
      "name": "Plate"
    },
    {
      "mesh": 2,
      "name": "Plate_Plate_0"
    },
    {
      "children": [
        12
      ],
      "matrix": [
        0.0,
        -0.3087262030830622,
        -0.951150950969359,
        0.0,
        0.0,
        0.951150950969359,
        -0.3087262030830622,
        0.0,
        1.0,
        0.0,
        0.0,
        0.0,
        0.7420251369476318,
        3.484524965286255,
        -2.1893303394317627,
        1.0
      ],
      "name": "LED"
    },
    {
      "mesh": 3,
      "name": "LED_Paper_0"
    },
    {
      "children": [
        14
      ],
      "matrix": [
        0.0,
        -0.3087262030830622,
        -0.951150950969359,
        0.0,
        0.0,
        0.951150950969359,
        -0.3087262030830622,
        0.0,
        1.0,
        0.0,
        0.0,
        0.0,
        1.2344493865966797,
        3.617812156677246,
        -2.175379514694214,
        1.0
      ],
      "name": "Button"
    },
    {
      "mesh": 4,
      "name": "Button_Black Plastic_0"
    },
    {
      "children": [
        16
      ],
      "matrix": [
        3.3306690738754696e-16,
        0.030344195484044826,
        -0.9995395088741744,
        0.0,
        4.371503159461554e-16,
        0.9995395088741745,
        0.03034419548404483,
        0.0,
        0.9999999999999999,
        -4.458239333260394e-16,
        3.3306690738754696e-16,
        0.0,
        4.188937664031982,
        -0.004916788544505835,
        3.4315624237060547,
        1.0
      ],
      "name": "Body"
    },
    {
      "mesh": 5,
      "name": "Body_White Plastic_0"
    },
    {
      "children": [
        18
      ],
      "matrix": [
        3.3306690738754696e-16,
        0.03034419548404549,
        -0.9995395088741744,
        0.0,
        2.1510571102112408e-16,
        0.9995395088741745,
        0.03034419548404549,
        0.0,
        0.9999999999999999,
        -2.255140518769849e-16,
        3.3306690738754696e-16,
        0.0,
        0.8922483325004578,
        0.40069571137428284,
        1.6676510572433472,
        1.0
      ],
      "name": "Leg"
    },
    {
      "mesh": 6,
      "name": "Leg_Orange Plastic_0"
    },
    {
      "children": [
        20
      ],
      "matrix": [
        3.3306690738754696e-16,
        0.030344195484044826,
        -0.9995395088741744,
        0.0,
        4.371503159461554e-16,
        0.9995395088741745,
        0.03034419548404483,
        0.0,
        0.9999999999999999,
        -4.458239333260394e-16,
        3.3306690738754696e-16,
        0.0,
        -0.9926621317863464,
        0.40069571137428284,
        1.6676510572433472,
        1.0
      ],
      "name": "Leg_2"
    },
    {
      "mesh": 7,
      "name": "Leg_2_Orange Plastic_0"
    }
  ],
  "samplers": [
    {
      "magFilter": 9729,
      "minFilter": 9987,
      "wrapS": 10497,
      "wrapT": 10497
    }
  ],
  "scene": 0,
  "scenes": [
    {
      "name": "Sketchfab_Scene",
      "nodes": [
        0
      ]
    }
  ],
  "textures": [
    {
      "sampler": 0,
      "source": 0
    }
  ]
}
